<svg width="48" height="43" viewBox="0 0 48 43" fill="none" xmlns="http://www.w3.org/2000/svg">
<path d="M20.9681 40.6178C15.7936 37.0354 11.3194 32.5184 7.77084 27.2944C6.27179 25.745 5.42449 23.6702 5.40628 21.5044C5.40341 20.4297 5.61081 19.365 6.01659 18.3714C6.42237 17.3778 7.01852 16.4748 7.77084 15.7144C11.5568 10.695 15.9959 6.21386 20.9681 2.3921C22.5028 0.878367 24.5579 0.0225944 26.7034 0.00393777C27.768 0.000950099 28.8228 0.210393 29.807 0.620233C30.7913 1.03007 31.6856 1.63223 32.4386 2.3921C37.3412 6.29359 41.7709 10.7653 45.6359 15.7144C47.1353 17.2637 47.9829 19.3385 48.0014 21.5044C48.0041 22.5792 47.7965 23.644 47.3906 24.6376C46.9846 25.6312 46.3883 26.5341 45.6359 27.2944C41.7743 32.2473 37.3438 36.7197 32.4376 40.6178C31.4603 41.5863 30.2622 42.2974 28.9488 42.6886C28.219 42.9027 27.4624 43.0092 26.7024 43.005C25.7477 42.9829 24.8037 42.7963 23.9113 42.4531C22.8215 42.0402 21.8218 41.4168 20.9681 40.6178Z" fill="url(#paint0_linear_205_875)"/>
<path d="M16.1613 9.33201C16.8448 8.51188 17.6282 7.78215 18.4928 7.16013C19.7084 6.14643 21.0416 5.28577 22.4631 4.59713C23.8289 4.00271 25.2842 3.64531 26.7678 3.54C27.8967 3.41296 29.0391 3.48962 30.1414 3.76638C32.2586 4.40299 34.066 5.81094 35.2129 7.717C36.0556 9.20135 36.443 10.9048 36.3261 12.6116C36.2027 14.1255 35.7355 15.5905 34.9607 16.8927C33.0868 20.4776 31.7207 24.3103 30.9023 28.2786C30.7071 31.6396 30.0245 34.9534 28.8761 38.1142C28.5034 38.973 27.8301 39.6628 26.985 40.0516C26.4475 40.2136 25.882 40.2582 25.326 40.1826C24.7701 40.1069 24.2365 39.9128 23.7605 39.613C22.5492 38.8153 21.6764 37.59 21.3129 36.1768C20.2367 32.7942 21.8605 30.4374 20.3659 29.0437C20.15 28.8261 19.8917 28.6562 19.6073 28.5446C19.323 28.4331 19.0188 28.3825 18.7141 28.3959C18.2019 28.5101 17.7538 28.8211 17.4647 29.263C16.0632 31.1246 17.6719 33.4238 16.6719 36.6943C16.3648 38.0818 15.53 39.2919 14.3473 40.0638C13.6466 40.4435 12.8613 40.6358 12.0661 40.6225C11.2709 40.6093 10.4923 40.3908 9.8044 39.988C9.2859 39.6698 8.84191 39.2419 8.503 38.7338C7.31742 36.2281 6.82914 33.4442 7.09046 30.6799C6.81016 25.1729 3.19626 25.1001 1.00889 16.5248C0.391764 14.5094 0.345969 12.3598 0.876728 10.3194C1.30775 8.76516 2.14386 7.35608 3.29787 6.23904C4.45187 5.12201 5.88154 4.33792 7.43785 3.96851C9.43655 3.47599 11.5375 3.62363 13.4494 4.39096C15.178 5.06672 16.698 6.19355 17.8541 7.65636" fill="white"/>
<path d="M16.1613 9.33201C16.8448 8.51188 17.6282 7.78215 18.4928 7.16013C19.7084 6.14643 21.0416 5.28577 22.4631 4.59713C23.8289 4.00271 25.2842 3.64531 26.7678 3.54C27.8967 3.41296 29.0391 3.48962 30.1414 3.76638C32.2586 4.40299 34.066 5.81094 35.2129 7.717C36.0556 9.20135 36.443 10.9048 36.3261 12.6116C36.2027 14.1255 35.7355 15.5905 34.9607 16.8927C33.0868 20.4776 31.7207 24.3103 30.9023 28.2786C30.7071 31.6396 30.0244 34.9534 28.8761 38.1142C28.5034 38.973 27.8301 39.6628 26.985 40.0516C26.4475 40.2136 25.882 40.2582 25.326 40.1826C24.7701 40.1069 24.2365 39.9128 23.7605 39.613C22.5492 38.8153 21.6764 37.59 21.3129 36.1768C20.2367 32.7942 21.8605 30.4374 20.3659 29.0437C20.15 28.8261 19.8917 28.6562 19.6073 28.5446C19.323 28.4331 19.0188 28.3825 18.7141 28.3959C18.2019 28.5101 17.7538 28.8211 17.4647 29.263C16.0632 31.1246 17.6719 33.4238 16.6719 36.6943C16.3648 38.0818 15.53 39.2919 14.3473 40.0638C13.6466 40.4435 12.8613 40.6358 12.0661 40.6225C11.2709 40.6093 10.4923 40.3908 9.8044 39.988C9.2859 39.6698 8.84191 39.2419 8.503 38.7338C7.31742 36.2281 6.82914 33.4442 7.09046 30.6799C6.81016 25.1729 3.19626 25.1001 1.00889 16.5248C0.391764 14.5094 0.345969 12.3598 0.876728 10.3194C1.30775 8.76516 2.14386 7.35608 3.29787 6.23904C4.45187 5.12201 5.88154 4.33792 7.43785 3.96851C9.43655 3.47599 11.5375 3.62363 13.4494 4.39096C15.178 5.06672 16.698 6.19355 17.8541 7.65636" stroke="#2D2D2D" stroke-miterlimit="9.996" stroke-linecap="round"/>
<path d="M28.6435 14.5985C26.5582 14.5985 24.8594 12.8845 24.8594 10.7783C24.8594 8.67109 26.5572 6.95703 28.6435 6.95703C30.7307 6.95703 32.4286 8.67109 32.4286 10.7773C32.4286 12.8845 30.7297 14.5985 28.6435 14.5985Z" fill="#4285F4"/>
<path d="M28.644 7.46377C26.8351 7.46377 25.3605 8.95144 25.3605 10.7787C25.3605 12.608 26.8341 14.0946 28.644 14.0946C30.456 14.0946 31.9286 12.608 31.9286 10.7797C31.9286 8.94942 30.455 7.46377 28.644 7.46377ZM28.645 6.45312C31.0116 6.45312 32.9297 8.38952 32.9297 10.7787C32.9297 13.1689 31.0116 15.1053 28.645 15.1053C26.2775 15.1053 24.3594 13.1689 24.3594 10.7797C24.3594 8.38952 26.2785 6.45312 28.645 6.45312Z" fill="white"/>
<defs>
<linearGradient id="paint0_linear_205_875" x1="26.7038" y1="0.00390625" x2="26.7038" y2="43.0051" gradientUnits="userSpaceOnUse">
<stop stop-color="white"/>
<stop offset="1" stop-color="#D9F88B"/>
</linearGradient>
</defs>
</svg>
