<svg width="48" height="43" viewBox="0 0 48 43" fill="none" xmlns="http://www.w3.org/2000/svg">
<g clip-path="url(#clip0_205_814)">
<path d="M20.8014 40.6178C15.5953 37.0354 11.0937 32.5184 7.52356 27.2944C6.01536 25.745 5.16288 23.6702 5.14456 21.5044C5.14167 20.4297 5.35034 19.365 5.7586 18.3714C6.16685 17.3778 6.76665 16.4748 7.52356 15.7144C11.3327 10.695 15.7988 6.21386 20.8014 2.3921C22.3454 0.878367 24.4131 0.0225944 26.5717 0.00393777C27.6428 0.000950099 28.7041 0.210393 29.6943 0.620233C30.6845 1.03007 31.5843 1.63223 32.3419 2.3921C37.2745 6.29359 41.7313 10.7653 45.6198 15.7144C47.1284 17.2637 47.9812 19.3385 47.9998 21.5044C48.0025 22.5792 47.7937 23.644 47.3852 24.6376C46.9768 25.6312 46.3769 26.5341 45.6198 27.2944C41.7347 32.2473 37.2771 36.7197 32.3409 40.6178C31.3577 41.5863 30.1523 42.2974 28.8308 42.6886C28.0965 42.9027 27.3353 43.0092 26.5707 43.005C25.6102 42.9829 24.6605 42.7963 23.7626 42.4531C22.6661 42.0402 21.6603 41.4168 20.8014 40.6178Z" fill="url(#paint0_linear_205_814)"/>
<path d="M29.6464 40.9652C25.9259 41.1391 21.8326 41.2523 17.4171 41.2523C13.6793 41.2523 9.58207 41.1714 5.18867 40.9652C4.20398 40.9702 3.22884 40.7714 2.3242 40.3811C1.58995 40.0213 1.1347 39.5241 1.1347 38.9784C0.571041 34.9685 0.360395 30.9166 0.505203 26.8697C0.450377 23.0739 0.643836 19.2785 1.08434 15.5081C1.08434 15.3747 1.16693 14.6722 2.3242 14.1052C3.2701 13.7112 4.26968 13.4622 5.28939 13.3665C6.44151 13.2298 7.60111 13.1667 8.7612 13.1775C11.1362 13.0764 14.2323 13.0582 17.6517 13.0633C22.167 13.0693 26.225 13.126 29.6082 13.3665C30.6139 13.4222 31.5993 13.6731 32.5099 14.1052C32.8045 14.2283 33.066 14.4196 33.2729 14.6634C33.4798 14.9072 33.6263 15.1966 33.7004 15.5081C34.2607 19.3685 34.4845 23.2705 34.3692 27.1699C34.3701 31.1156 34.1469 35.0582 33.7004 38.9784C33.6312 39.3043 33.4799 39.6069 33.2612 39.8576C33.0424 40.1083 32.7633 40.2986 32.4505 40.4104C31.5577 40.7665 30.6071 40.9546 29.6464 40.9652Z" fill="white" stroke="#2D2D2D" stroke-miterlimit="10"/>
<path d="M24.7131 40.899C22.4661 41.1152 19.9924 41.2538 17.3264 41.2538C15.0672 41.2538 12.5925 41.1526 9.93857 40.899C9.2906 40.8905 8.67083 40.6317 8.2082 40.1764C7.98055 39.9486 7.79994 39.678 7.67671 39.38C7.55348 39.0821 7.49005 38.7627 7.49007 38.4401C7.08719 33.9063 7.09928 29.2189 7.10835 23.907C7.11741 18.8113 7.10834 13.7895 7.49007 9.41234C7.49705 8.76235 7.75481 8.14032 8.20921 7.67702C8.43601 7.44818 8.70562 7.26659 9.00257 7.14258C9.29951 7.01858 9.61794 6.95464 9.93957 6.95444C14.8355 6.19748 19.8182 6.19748 24.7141 6.95444C25.3621 6.96292 25.9819 7.2217 26.4445 7.67702C26.6725 7.9044 26.8534 8.1747 26.9768 8.47251C27.1002 8.77032 27.1637 9.08981 27.1637 9.41234C27.5544 13.845 27.7035 18.7274 27.7045 23.907C27.7045 29.1401 27.5575 33.969 27.1637 38.4401C27.1623 39.0915 26.904 39.7158 26.4452 40.1766C25.9863 40.6374 25.3643 40.8971 24.7152 40.899H24.7131Z" fill="white" stroke="#2D2D2D" stroke-miterlimit="10"/>
<path d="M16.5814 33.9062H18.2524C18.6145 33.9319 18.9519 34.1001 19.1911 34.3742C19.4303 34.6483 19.5519 35.0061 19.5295 35.3697C19.5295 35.3697 19.598 36.1438 19.598 37.5981C19.598 39.0524 19.5295 41.1869 19.5295 41.1869H15.3043C15.3043 41.1869 15.2207 39.0524 15.2207 37.5981C15.2207 36.1438 15.3043 35.3697 15.3043 35.3697C15.2819 35.0061 15.4035 34.6483 15.6427 34.3742C15.8819 34.1001 16.2193 33.9319 16.5814 33.9062Z" fill="white" stroke="#2D2D2D" stroke-miterlimit="10"/>
<path d="M14.8059 18.0352H12.5951C12.0388 18.0352 11.5879 18.4876 11.5879 19.0458V21.2642C11.5879 21.8223 12.0388 22.2748 12.5951 22.2748H14.8059C15.3621 22.2748 15.8131 21.8223 15.8131 21.2642V19.0458C15.8131 18.4876 15.3621 18.0352 14.8059 18.0352Z" fill="white" stroke="#2D2D2D" stroke-miterlimit="10"/>
<path d="M22.4934 18.0352H20.2826C19.7263 18.0352 19.2754 18.4876 19.2754 19.0458V21.2642C19.2754 21.8223 19.7263 22.2748 20.2826 22.2748H22.4934C23.0496 22.2748 23.5006 21.8223 23.5006 21.2642V19.0458C23.5006 18.4876 23.0496 18.0352 22.4934 18.0352Z" fill="#4285F4"/>
<path d="M14.8059 25.6445H12.5951C12.0388 25.6445 11.5879 26.097 11.5879 26.6552V28.8735C11.5879 29.4317 12.0388 29.8842 12.5951 29.8842H14.8059C15.3621 29.8842 15.8131 29.4317 15.8131 28.8735V26.6552C15.8131 26.097 15.3621 25.6445 14.8059 25.6445Z" fill="#4285F4"/>
<path d="M22.4934 25.6445H20.2826C19.7263 25.6445 19.2754 26.097 19.2754 26.6552V28.8735C19.2754 29.4317 19.7263 29.8842 20.2826 29.8842H22.4934C23.0496 29.8842 23.5006 29.4317 23.5006 28.8735V26.6552C23.5006 26.097 23.0496 25.6445 22.4934 25.6445Z" fill="white" stroke="#2D2D2D" stroke-miterlimit="10"/>
<path d="M15.9528 9.79835V8.48446C15.9528 8.40952 15.938 8.33531 15.9094 8.26609C15.8808 8.19687 15.8389 8.1341 15.786 8.08116C15.7332 8.02822 15.6704 7.98625 15.6014 7.95767C15.5324 7.92908 15.4584 7.91435 15.3837 7.91449H14.0743C13.6858 7.91449 13.3132 7.7596 13.0385 7.48392C12.7637 7.20825 12.6094 6.8344 12.6094 6.44453C12.6094 6.05467 12.7637 5.68082 13.0385 5.40514C13.3132 5.12946 13.6858 4.97458 14.0743 4.97458H15.3837C15.4584 4.97471 15.5324 4.95999 15.6014 4.9314C15.6704 4.90281 15.7332 4.86085 15.786 4.80791C15.8389 4.75496 15.8808 4.69207 15.9094 4.62285C15.938 4.55363 15.9528 4.47943 15.9528 4.40449V3.08665C15.9528 2.69692 16.1071 2.32321 16.3817 2.04763C16.6563 1.77204 17.0288 1.61719 17.4172 1.61719C17.8056 1.61719 18.1781 1.77204 18.4528 2.04763C18.7274 2.32321 18.8817 2.69692 18.8817 3.08665V4.4056C18.8817 4.48054 18.8964 4.55474 18.925 4.62396C18.9536 4.69318 18.9956 4.75595 19.0484 4.80889C19.1013 4.86184 19.164 4.90392 19.2331 4.93251C19.3021 4.9611 19.3761 4.9757 19.4508 4.97557H20.7601C21.1487 4.97557 21.5213 5.13045 21.796 5.40613C22.0707 5.6818 22.2251 6.05565 22.2251 6.44552C22.2251 6.83538 22.0707 7.20924 21.796 7.48491C21.5213 7.76059 21.1487 7.91547 20.7601 7.91547H19.4447C19.2942 7.91547 19.1499 7.97547 19.0434 8.08215C18.9369 8.18882 18.8769 8.33346 18.8767 8.48446V9.79835C18.8767 10.1882 18.7223 10.5621 18.4476 10.8377C18.1728 11.1134 17.8002 11.2683 17.4117 11.2683C17.0232 11.2683 16.6505 11.1134 16.3758 10.8377C16.1011 10.5621 15.9467 10.1882 15.9467 9.79835H15.9528Z" fill="#4285F4" stroke="white"/>
</g>
<defs>
<linearGradient id="paint0_linear_205_814" x1="26.5722" y1="0.00390625" x2="26.5722" y2="43.0051" gradientUnits="userSpaceOnUse">
<stop stop-color="white"/>
<stop offset="1" stop-color="#D9F88B"/>
</linearGradient>
<clipPath id="clip0_205_814">
<rect width="48" height="43" fill="white"/>
</clipPath>
</defs>
</svg>
