<svg width="68" height="49" viewBox="0 0 68 49" fill="none" xmlns="http://www.w3.org/2000/svg">
<g clip-path="url(#clip0_205_859)">
<path d="M39.1293 42.5278C33.6032 38.7767 28.825 34.0471 25.0354 28.5771C23.4346 26.9546 22.5296 24.7822 22.5098 22.5143C22.5068 21.389 22.7284 20.2741 23.1618 19.2337C23.5952 18.1932 24.2319 17.2478 25.0354 16.4516C29.0788 11.1968 33.8195 6.50568 39.1293 2.50487C40.7681 0.919572 42.963 0.0233685 45.2543 0.00393274C46.3914 0.00113108 47.5177 0.220612 48.5688 0.649789C49.6199 1.07897 50.575 1.70939 51.3794 2.50487C56.6151 6.5901 61.3458 11.2723 65.4733 16.4546C67.0749 18.0767 67.9803 20.2493 67.9999 22.5174C68.0027 23.6428 67.781 24.7577 67.3474 25.7982C66.9139 26.8386 66.277 27.784 65.4733 28.5801C61.3495 33.765 56.6184 38.447 51.3794 42.5278C50.3359 43.5421 49.0566 44.287 47.654 44.6969C46.8747 44.9209 46.0668 45.0323 45.2554 45.0278C44.2355 45.005 43.2271 44.8098 42.2736 44.4506C41.1093 44.018 40.0412 43.3649 39.1293 42.5278Z" fill="url(#paint0_linear_205_859)"/>
<path d="M29.9145 30.8203C29.6209 31.4619 26.6219 38.2779 29.9399 43.5302C30.9126 45.0149 32.2101 46.2641 33.7364 47.1855C35.3042 48.1682 37.154 48.6154 39.003 48.4586C40.3338 48.3507 41.6111 47.8912 42.7014 47.1281C43.7917 46.365 44.6551 45.3262 45.2015 44.1201C45.7479 42.9141 45.9574 41.585 45.8079 40.2715C45.6584 38.9581 45.1556 37.7084 44.3518 36.6529" stroke="black" stroke-width="0.988" stroke-miterlimit="10"/>
<path d="M24.3358 7.68594C21.8975 6.85732 20.3452 6.9257 19.4878 7.68594C15.7624 10.9934 22.7174 29.6232 29.9152 29.6031C37.1344 29.584 43.9442 10.8033 40.3092 7.68594C39.5736 7.05442 38.2601 6.93777 36.0768 7.68594" stroke="black" stroke-miterlimit="10"/>
<path d="M24.3356 9.5738C25.3882 9.5738 26.2414 8.72918 26.2414 7.68729C26.2414 6.6454 25.3882 5.80078 24.3356 5.80078C23.283 5.80078 22.4297 6.6454 22.4297 7.68729C22.4297 8.72918 23.283 9.5738 24.3356 9.5738Z" fill="#0097FF" stroke="white" stroke-width="0.5" stroke-miterlimit="10"/>
<path d="M36.0758 9.5738C37.1284 9.5738 37.9817 8.72918 37.9817 7.68729C37.9817 6.6454 37.1284 5.80078 36.0758 5.80078C35.0232 5.80078 34.1699 6.6454 34.1699 7.68729C34.1699 8.72918 35.0232 9.5738 36.0758 9.5738Z" fill="#0097FF" stroke="white" stroke-width="0.5" stroke-miterlimit="10"/>
<path d="M44.3552 40.2919C46.3829 40.2919 48.0267 38.6648 48.0267 36.6577C48.0267 34.6505 46.3829 33.0234 44.3552 33.0234C42.3274 33.0234 40.6836 34.6505 40.6836 36.6577C40.6836 38.6648 42.3274 40.2919 44.3552 40.2919Z" fill="white" stroke="black" stroke-miterlimit="10"/>
<path d="M29.9152 27.375C30.4909 27.3753 31.0429 27.6018 31.45 28.0047C31.8571 28.4077 32.0859 28.9541 32.0862 29.5239V31.3542C32.0859 31.9241 31.8571 32.4705 31.45 32.8734C31.0429 33.2764 30.4909 33.5029 29.9152 33.5031C29.3395 33.5029 28.7874 33.2764 28.3803 32.8734C27.9732 32.4705 27.7444 31.9241 27.7441 31.3542V29.5239C27.7444 28.9541 27.9732 28.4077 28.3803 28.0047C28.7874 27.6018 29.3395 27.3753 29.9152 27.375Z" fill="#0097FF" stroke="white" stroke-width="0.5" stroke-miterlimit="10"/>
<path d="M12.7491 25.2327C13.8758 25.3101 14.1968 24.4282 15.1244 24.5519C15.9676 24.8248 16.6719 25.4094 17.0904 26.1837C17.5089 26.958 17.6093 27.8623 17.3706 28.7081C17.0444 29.2701 16.5714 29.7349 16.0011 30.0534C15.4308 30.3719 14.7844 30.5325 14.1298 30.5183C10.3404 30.6771 7.57806 25.7305 6.96952 24.6414C6.32135 23.4819 3.47473 18.3826 5.75041 15.1255C6.5154 14.0334 8.23435 12.6024 9.78364 13.1726C10.4941 13.5153 11.0541 14.1026 11.3589 14.8244C11.6637 15.5462 11.6924 16.3532 11.4396 17.0945C10.9743 18.1182 9.92181 17.8748 9.32241 18.9668C8.43957 20.5758 9.80091 22.7579 10.0823 23.1793C10.442 23.7384 11.3705 25.1412 12.7491 25.2327Z" fill="#0097FF" stroke="white" stroke-width="0.5" stroke-miterlimit="10" stroke-linecap="round"/>
<path d="M3.61914 22.7656C3.72416 23.6772 3.99977 24.5615 4.43188 25.3732C5.02924 26.4829 5.89919 27.426 6.96155 28.1155" stroke="black" stroke-miterlimit="10" stroke-linecap="round"/>
<path d="M0.5625 23.1719C0.734578 24.6753 1.24099 26.1223 2.04532 27.409C2.84966 28.6956 3.93196 29.79 5.21444 30.6134" stroke="black" stroke-miterlimit="10" stroke-linecap="round"/>
</g>
<defs>
<linearGradient id="paint0_linear_205_859" x1="45.2549" y1="0.00390625" x2="45.2549" y2="45.0279" gradientUnits="userSpaceOnUse">
<stop stop-color="white"/>
<stop offset="1" stop-color="#D9F88B"/>
</linearGradient>
<clipPath id="clip0_205_859">
<rect width="68" height="49" fill="white"/>
</clipPath>
</defs>
</svg>
