<svg width="47" height="48" viewBox="0 0 47 48" fill="none" xmlns="http://www.w3.org/2000/svg">
<path d="M19.1839 44.6068C13.8597 40.6722 9.25603 35.7112 5.60487 29.9736C4.06246 28.2718 3.19064 25.9931 3.17191 23.6143C3.16895 22.4339 3.38236 21.2645 3.79987 20.1732C4.21738 19.082 4.83078 18.0903 5.60487 17.2551C9.50036 11.7422 14.0679 6.82048 19.1839 2.62299C20.7629 0.960432 22.8775 0.0205254 25.085 3.46173e-05C26.1805 -0.00324678 27.2658 0.226787 28.2785 0.67692C29.2912 1.12705 30.2114 1.78842 30.9862 2.62299C36.0306 6.90804 40.5885 11.8193 44.5652 17.2551C46.108 18.9567 46.9802 21.2355 46.9992 23.6143C47.002 24.7948 46.7884 25.9642 46.3707 27.0555C45.953 28.1468 45.3395 29.1385 44.5652 29.9736C40.5919 35.4134 36.0333 40.3255 30.9851 44.6068C29.9796 45.6705 28.7469 46.4515 27.3954 46.8812C26.6445 47.1163 25.866 47.2333 25.084 47.2287C24.1017 47.2044 23.1305 46.9995 22.2122 46.6226C21.0909 46.169 20.0623 45.4843 19.1839 44.6068Z" fill="url(#paint0_linear_205_790)"/>
<path d="M11.6715 7.14974C11.861 8.9868 12.0773 11.6508 12.1329 14.8787C12.3618 17.6177 12.2062 20.3782 11.6715 23.0672C10.832 26.1608 9.49605 27.2553 6.72729 31.4256C4.77033 34.3736 3.0146 37.4709 1.47404 40.6931C1.2187 41.1258 1.06135 41.6172 1.01466 42.1276C0.967956 42.638 1.03323 43.153 1.20521 43.6312C1.44926 44.1723 1.8089 44.6434 2.25455 45.0057C2.70021 45.3681 3.21919 45.6114 3.769 45.7158C5.83527 45.8856 8.76371 46.1076 12.2978 46.3085C12.7005 46.3296 15.8185 46.5039 19.9912 46.5827C23.0757 46.6063 26.1554 46.3165 29.1894 45.717C30.3957 45.6486 31.528 45.0697 32.3403 44.1063C32.6016 43.5536 32.7423 42.9439 32.7516 42.3237C32.7609 41.7034 32.6385 41.0892 32.3939 40.5277C30.3039 34.0597 24.1134 30.3944 22.0832 23.1727C21.4844 20.6799 21.2217 18.1071 21.3034 15.5336C21.2539 12.5588 21.4987 9.58683 22.0337 6.66797L11.6715 7.14974Z" fill="white" stroke="#2D2D2D" stroke-miterlimit="10" stroke-linecap="round"/>
<path d="M9.67633 3.84094C9.4576 4.26559 9.34777 4.74539 9.35809 5.23095C9.36841 5.71651 9.49851 6.19034 9.73505 6.60376C10.1893 7.37522 11.0875 7.888 16.6363 7.88023C22.1543 7.88023 23.0391 7.373 23.4686 6.60376C23.6865 6.19217 23.8 5.72607 23.7979 5.25223C23.7957 4.77838 23.6779 4.31346 23.4562 3.90421C22.7919 2.77644 21.426 2.89743 16.3912 2.88411C11.6344 2.88078 10.3098 2.76423 9.67633 3.84094Z" fill="white" stroke="#2D2D2D" stroke-miterlimit="10" stroke-linecap="round"/>
<path d="M14.7949 15.1211H19.5053" stroke="#2D2D2D" stroke-miterlimit="10" stroke-linecap="round"/>
<path d="M14.7949 19.6367H19.5053" stroke="#2D2D2D" stroke-linecap="round"/>
<path d="M14.7949 24.1875H19.5053" stroke="#2D2D2D" stroke-linecap="round"/>
<path d="M14.3377 31.6457C15.585 30.5423 15.7262 31.6457 17.0755 31.6457C18.4249 31.6457 18.4146 30.5357 19.7361 31.6457C22.3627 33.859 27.3471 38.2874 24.8431 40.5019C22.339 42.7164 12.3435 42.7219 9.71792 40.5019C7.09234 38.2819 11.8336 33.8546 14.3377 31.6457Z" fill="#4285F4"/>
<defs>
<linearGradient id="paint0_linear_205_790" x1="25.0856" y1="0" x2="25.0856" y2="47.2288" gradientUnits="userSpaceOnUse">
<stop stop-color="white"/>
<stop offset="1" stop-color="#D9F88B"/>
</linearGradient>
</defs>
</svg>
