<svg width="49" height="46" viewBox="0 0 49 46" fill="none" xmlns="http://www.w3.org/2000/svg">
<g clip-path="url(#clip0_205_803)">
<path d="M21.9345 39.9874C16.7536 36.4606 12.2739 32.0138 8.721 26.8709C7.22012 25.3455 6.37178 23.3029 6.35355 21.1707C6.35067 20.1127 6.55833 19.0645 6.9646 18.0863C7.37088 17.1081 7.96776 16.2192 8.721 15.4706C12.5116 10.5291 16.9561 6.11747 21.9345 2.35504C23.471 0.864794 25.5286 0.0223043 27.6767 0.00393728C28.7427 0.000995984 29.7988 0.207188 30.7842 0.610666C31.7696 1.01414 32.665 1.60696 33.419 2.35504C38.3276 6.19596 42.7628 10.5982 46.6325 15.4706C48.1337 16.9958 48.9824 19.0384 49.0009 21.1707C49.0036 22.2288 48.7958 23.2771 48.3893 24.2552C47.9829 25.2334 47.3858 26.1223 46.6325 26.8709C42.7661 31.7468 38.3302 36.1498 33.418 39.9874C32.4395 40.9408 31.24 41.6409 29.9249 42.0261C29.1942 42.2368 28.4366 42.3417 27.6757 42.3375C26.7199 42.3158 25.7748 42.1321 24.8813 41.7943C23.7901 41.3877 22.7892 40.774 21.9345 39.9874Z" fill="url(#paint0_linear_205_803)"/>
<path d="M25.848 38.1365C26.0746 35.5496 26.0034 29.3232 26.0034 29.3232C26.0034 29.3232 25.9373 26.8635 25.5022 22.9364C25.4395 21.7203 24.9473 20.565 24.112 19.6731C23.1658 18.8374 21.9245 18.408 20.6601 18.479C18.2545 18.3596 15.7287 18.294 13.0986 18.297C10.6149 18.297 8.22841 18.3666 5.94615 18.479C4.68418 18.4234 3.44931 18.8536 2.4992 19.68C1.55344 20.5147 0.97961 21.6875 0.903513 22.9414C0.613902 25.6845 0.482054 28.4417 0.508605 31.1996C0.433762 34.3241 0.56568 37.45 0.903513 40.5573C0.989298 41.8098 1.55961 42.9809 2.49518 43.8256C2.96245 44.2417 3.50774 44.5623 4.09988 44.7691C4.69202 44.9758 5.31939 45.0647 5.94615 45.0306C8.68842 45.4296 11.4613 45.5824 14.2312 45.4872C16.3829 45.5001 18.5322 45.3474 20.6601 45.0306C21.5819 44.8406 22.4932 44.6035 23.3904 44.3202" fill="white"/>
<path d="M25.848 38.1365C26.0746 35.5496 26.0034 29.3232 26.0034 29.3232C26.0034 29.3232 25.9373 26.8635 25.5022 22.9364C25.4395 21.7203 24.9473 20.565 24.112 19.6731C23.1658 18.8374 21.9245 18.408 20.6601 18.479C18.2545 18.3596 15.7287 18.294 13.0986 18.297C10.6149 18.297 8.22841 18.3666 5.94615 18.479C4.68418 18.4234 3.44931 18.8536 2.4992 19.68C1.55344 20.5147 0.97961 21.6875 0.903513 22.9414C0.613902 25.6845 0.482054 28.4417 0.508605 31.1996C0.433762 34.3241 0.56568 37.45 0.903513 40.5573C0.989298 41.8098 1.55961 42.9809 2.49518 43.8256C2.96245 44.2417 3.50774 44.5623 4.09988 44.7691C4.69202 44.9758 5.31939 45.0647 5.94615 45.0306C8.68842 45.4296 11.4613 45.5824 14.2312 45.4872C16.3829 45.5001 18.5322 45.3474 20.6601 45.0306C21.5819 44.8406 22.4932 44.6035 23.3904 44.3202" stroke="black" stroke-linejoin="round"/>
<path d="M7.12018 5.78468C11.198 5.49365 15.2916 5.49365 19.3694 5.78468C20.054 5.79093 20.7094 6.06056 21.1976 6.53685C21.4382 6.77486 21.629 7.05773 21.759 7.36918C21.8891 7.68063 21.9558 8.01461 21.9554 8.35175C22.2793 10.0189 22.2793 11.7321 21.9554 13.3992C21.9553 14.0802 21.6827 14.7333 21.1976 15.2149C20.6985 15.6746 20.0498 15.9412 19.3694 15.9661C17.3979 16.1005 15.3983 16.1353 13.1691 16.1294C11.0763 16.1294 8.98448 16.0925 7.12018 15.9661C6.43574 15.9604 5.78028 15.691 5.29196 15.2149C5.05134 14.9768 4.86053 14.6937 4.73049 14.3821C4.60044 14.0705 4.53374 13.7365 4.53422 13.3992C4.22297 11.7309 4.22297 10.02 4.53422 8.35175C4.53724 7.89758 4.6588 7.45189 4.88704 7.05826C4.99799 6.86899 5.13271 6.69449 5.28795 6.53891C5.78993 6.08081 6.43893 5.81361 7.12018 5.78468Z" fill="white" stroke="black" stroke-miterlimit="10"/>
<path d="M20.6172 37.9448C22.8783 37.7146 25.151 37.6149 27.4239 37.6463C29.604 37.6311 31.7834 37.7308 33.9529 37.9448C34.8983 37.9534 35.8034 38.3258 36.4777 38.9835C36.8097 39.3123 37.0729 39.7031 37.2523 40.1332C37.4317 40.5633 37.5238 41.0243 37.5231 41.4898C37.5233 41.9554 37.431 42.4164 37.2516 42.8466C37.0721 43.2768 36.8091 43.6676 36.4774 43.9968C36.1458 44.326 35.7521 44.5871 35.3187 44.7652C34.8854 44.9433 34.4209 45.035 33.9519 45.0349C31.9403 45.208 29.7582 45.2578 27.4228 45.2617C24.9832 45.2667 22.705 45.2159 20.6161 45.0349C19.671 45.0273 18.7657 44.6556 18.0913 43.9981C17.759 43.6691 17.4955 43.278 17.316 42.8476C17.1364 42.4171 17.0443 41.9557 17.0449 41.4898C17.0449 41.0242 17.1373 40.5631 17.3169 40.1329C17.4964 39.7028 17.7595 39.312 18.0913 38.9828C18.423 38.6536 18.8168 38.3924 19.2502 38.2143C19.6836 38.0362 20.1481 37.9447 20.6172 37.9448Z" fill="white" stroke="black" stroke-miterlimit="10"/>
<path d="M27.2461 37.9414H27.4415V45.0315H27.2461V37.9414Z" stroke="black" stroke-width="0.854" stroke-miterlimit="10"/>
<path d="M11.8518 35.5071V33.8375C11.8519 33.7427 11.8332 33.6489 11.7967 33.5612C11.7603 33.4736 11.7067 33.3939 11.6393 33.3268C11.5718 33.2597 11.4916 33.2066 11.4034 33.1703C11.3152 33.134 11.2206 33.1152 11.1251 33.1152H9.4432C8.94596 33.1152 8.46909 32.9192 8.11749 32.5702C7.76589 32.2211 7.56836 31.7478 7.56836 31.2542C7.56836 30.7606 7.76589 30.2871 8.11749 29.9381C8.46909 29.5891 8.94596 29.393 9.4432 29.393H11.1261C11.3188 29.393 11.5036 29.3171 11.6399 29.1818C11.7762 29.0465 11.8527 28.863 11.8527 28.6717V27.0022C11.8527 26.5084 12.0503 26.0349 12.402 25.6858C12.7537 25.3367 13.2307 25.1406 13.7281 25.1406C14.2254 25.1406 14.7024 25.3367 15.0541 25.6858C15.4058 26.0349 15.6034 26.5084 15.6034 27.0022V28.6727C15.6034 28.864 15.68 29.0475 15.8162 29.1828C15.9525 29.3181 16.1373 29.3941 16.3301 29.3941H18.012C18.5093 29.3941 18.9863 29.5902 19.338 29.9393C19.6897 30.2884 19.8873 30.7619 19.8873 31.2556C19.8873 31.7494 19.6897 32.2229 19.338 32.572C18.9863 32.9211 18.5093 33.1172 18.012 33.1172H16.3291C16.2336 33.1171 16.1391 33.1356 16.0508 33.1718C15.9626 33.208 15.8824 33.2611 15.8149 33.3282C15.7474 33.3952 15.6939 33.4747 15.6574 33.5623C15.621 33.6499 15.6023 33.7437 15.6024 33.8385V35.5071C15.6024 36.0008 15.4048 36.4743 15.0531 36.8234C14.7014 37.1725 14.2244 37.3687 13.7271 37.3687C13.2297 37.3687 12.7527 37.1725 12.401 36.8234C12.0493 36.4743 11.8518 36.0008 11.8518 35.5071Z" fill="#0097FF" stroke="white" stroke-width="0.654"/>
</g>
<defs>
<linearGradient id="paint0_linear_205_803" x1="27.6772" y1="0.00390625" x2="27.6772" y2="42.3376" gradientUnits="userSpaceOnUse">
<stop stop-color="white"/>
<stop offset="1" stop-color="#D9F88B"/>
</linearGradient>
<clipPath id="clip0_205_803">
<rect width="49" height="46" fill="white"/>
</clipPath>
</defs>
</svg>
