<svg width="45" height="45" viewBox="0 0 45 45" fill="none" xmlns="http://www.w3.org/2000/svg">
<g clip-path="url(#clip0_205_829)">
<path d="M17.6432 41.4196C12.4066 37.836 7.87862 33.3177 4.28751 28.092C2.77047 26.5421 1.91299 24.4667 1.89456 22.3002C1.89166 21.2252 2.10155 20.1601 2.5122 19.1662C2.92285 18.1723 3.52616 17.2691 4.28751 16.5084C8.11894 11.4874 12.6113 7.00487 17.6432 3.18191C19.1963 1.6677 21.2761 0.811663 23.4473 0.793C24.5248 0.790012 25.5922 0.99952 26.5882 1.40949C27.5843 1.81946 28.4893 2.42181 29.2514 3.18191C34.2129 7.08462 38.6958 11.5577 42.6071 16.5084C44.1245 18.0582 44.9824 20.1336 45.0011 22.3002C45.0038 23.3754 44.7937 24.4405 44.3829 25.4344C43.9721 26.4283 43.3686 27.3315 42.6071 28.092C38.6992 33.0464 34.2155 37.5203 29.2504 41.4196C28.2614 42.3883 27.0489 43.0997 25.7197 43.491C24.9811 43.7052 24.2154 43.8117 23.4463 43.8075C22.4802 43.7854 21.5249 43.5987 20.6218 43.2555C19.5188 42.8424 18.5072 42.2188 17.6432 41.4196Z" fill="url(#paint0_linear_205_829)"/>
<path d="M4.66602 31.1797H30.957C30.957 31.1797 34.8393 40.8617 25.7578 43.7268C16.6763 46.5918 4.66602 43.7268 4.66602 43.7268L4.66602 31.1797Z" fill="white"/>
<path d="M18.2263 21.7987L21.8502 24.9933L13.2651 25.696C12.2878 25.5167 11.3241 25.2701 10.3809 24.9579C11.1967 23.6823 12.3909 22.6924 13.7972 22.1261C15.2035 21.5598 16.7517 21.4453 18.2263 21.7987Z" fill="white" stroke="#707070"/>
<path d="M10.6426 23.5803C10.5291 23.6207 10.4167 23.6662 10.2941 23.7127C10.9567 23.4594 11.5452 23.0448 12.0063 22.5066C12.8025 21.5233 13.1791 20.2668 13.0548 19.0087C11.416 17.6896 10.1886 15.931 9.51704 13.9397C9.1045 12.6734 8.94212 11.3392 9.03887 10.0111C9.01373 9.14125 9.21737 8.27996 9.62951 7.51303C10.8452 5.71756 13.2879 7.06919 16.1134 5.09478C18.0515 3.72998 18.3503 2.4572 19.4931 2.5219C21.571 2.64119 22.7725 6.95398 22.8789 7.36544C23.4014 9.45108 23.3255 11.6413 22.66 13.6859C21.9718 15.7977 20.7116 17.6783 19.019 19.1199C18.7729 19.9954 18.8727 20.9318 19.2976 21.7362C19.7687 22.4872 20.494 23.0447 21.342 23.3073" fill="white"/>
<path d="M10.6426 23.5803C10.5291 23.6207 10.4167 23.6662 10.2941 23.7127C10.9567 23.4594 11.5452 23.0448 12.0063 22.5066C12.8025 21.5233 13.1791 20.2668 13.0548 19.0087C11.416 17.6896 10.1886 15.931 9.51704 13.9397C9.1045 12.6734 8.94212 11.3392 9.03887 10.0111C9.01373 9.14125 9.21737 8.27996 9.62951 7.51303C10.8452 5.71756 13.2879 7.06919 16.1134 5.09478C18.0515 3.72998 18.3503 2.4572 19.4931 2.5219C21.571 2.64119 22.7725 6.95398 22.8789 7.36544C23.4014 9.45108 23.3255 11.6413 22.66 13.6859C21.9718 15.7977 20.7116 17.6783 19.019 19.1199C18.7729 19.9954 18.8727 20.9318 19.2976 21.7362C19.7687 22.4872 20.494 23.0447 21.342 23.3073" stroke="#2D2D2D" stroke-miterlimit="10"/>
<path d="M16.0893 22.1956C20.0434 22.1956 23.2489 17.902 23.2489 12.6056C23.2489 7.30921 20.0434 3.01562 16.0893 3.01562C12.1351 3.01562 8.92969 7.30921 8.92969 12.6056C8.92969 17.902 12.1351 22.1956 16.0893 22.1956Z" fill="white" stroke="#2D2D2D" stroke-miterlimit="10"/>
<path d="M22.752 15.9581C24.608 15.0867 25.31 13.4499 24.8663 12.5471C24.5086 11.8202 23.448 11.6534 23.1998 11.6211C23.3056 13.0818 23.1541 14.5496 22.752 15.9581Z" fill="white" stroke="#2D2D2D" stroke-miterlimit="10" stroke-linecap="round"/>
<path d="M9.09384 15.6036C7.36042 14.7271 6.75657 13.0762 7.2459 12.1603C7.44358 11.8917 7.6981 11.6699 7.99138 11.5105C8.28466 11.3512 8.6095 11.2582 8.94284 11.2383C8.85606 11.845 8.81443 12.4573 8.81824 13.0702C8.82375 13.9218 8.91611 14.7706 9.09384 15.6036Z" fill="white" stroke="#2D2D2D" stroke-miterlimit="10" stroke-linecap="round"/>
<path d="M6.88347 34.9223C6.88347 37.4699 9.05967 37.6095 10.1873 37.47C13.0949 37.1091 15.737 36.1031 16.8595 35.9383C18.3123 35.726 19.2119 39.3574 19.2757 40.0044C19.3396 40.6514 18.5271 40.9941 18.5271 40.9941C-0.775538 48.3186 0.554674 38.5244 0.554674 38.5244C0.87988 27.1551 4.65266 25.5911 4.65266 25.5911C6.33635 24.4069 8.27072 23.6255 10.3058 23.3073C11.208 23.0974 12.1563 23.2331 12.9631 23.6875C13.8383 24.2187 14.8394 24.508 15.8636 24.5258C16.8878 24.5435 17.8983 24.2891 18.7915 23.7886C19.5522 23.3188 20.4603 23.147 21.3405 23.3064L21.5877 23.3417C24.3424 23.7307 26.9159 24.9383 28.9732 26.8073C29.8465 27.6616 29.8992 28.991 31.2365 31.6862" fill="white"/>
<path d="M6.88347 34.9223C6.88347 37.4699 9.05967 37.6095 10.1873 37.47C13.0949 37.1091 15.737 36.1031 16.8595 35.9383C18.3123 35.726 19.2119 39.3574 19.2757 40.0044C19.3396 40.6514 18.5271 40.9941 18.5271 40.9941C-0.775539 48.3186 0.554674 38.5244 0.554674 38.5244C0.87988 27.1551 4.65266 25.5911 4.65266 25.5911C6.33635 24.4069 8.27072 23.6255 10.3058 23.3073C11.208 23.0974 12.1563 23.2331 12.9631 23.6875C13.8383 24.2187 14.8394 24.508 15.8636 24.5258C16.8878 24.5435 17.8983 24.2891 18.7915 23.7886C19.5522 23.3188 20.4603 23.147 21.3405 23.3064L21.5877 23.3417C24.3424 23.7307 26.9159 24.9383 28.9732 26.8073C29.8465 27.6616 29.8992 28.991 31.2365 31.6862" stroke="#2D2D2D" stroke-miterlimit="10" stroke-linecap="round"/>
<path d="M25.8391 37.5468C25.2326 38.4919 25.0084 39.6316 25.2119 40.7354C25.3933 41.9718 27.38 43.2456 28.6322 43.2304C29.472 43.0769 30.2399 42.6571 30.8215 42.0335C32.1122 40.4604 31.2359 32.1836 31.2359 32.1836" fill="white"/>
<path d="M25.8391 37.5468C25.2326 38.4919 25.0084 39.6316 25.2119 40.7354C25.3933 41.9718 27.38 43.2456 28.6322 43.2304C29.472 43.0769 30.2399 42.6571 30.8215 42.0335C32.1122 40.4604 31.2359 32.1836 31.2359 32.1836" stroke="#2D2D2D" stroke-miterlimit="10" stroke-linecap="round"/>
<path d="M26.3004 33.1328C26.3813 33.8799 26.2529 34.6347 25.9297 35.3134" stroke="#2D2D2D" stroke-linecap="round" stroke-linejoin="bevel"/>
<path d="M25.4238 38.4187C25.9577 37.3762 26.3231 36.2561 26.5068 35.0998C26.5068 35.0998 26.3549 34.0201 27.8938 34.5781C29.4327 35.1362 30.6818 35.3535 31.237 35.029C31.7922 34.7045 32.1984 35.0543 31.9927 35.4202C31.7138 36.6107 31.5493 37.8249 31.5014 39.0465" fill="white"/>
<path d="M25.4238 38.4187C25.9577 37.3762 26.3231 36.2561 26.5068 35.0998C26.5068 35.0998 26.3549 34.0201 27.8938 34.5781C29.4327 35.1362 30.6818 35.3535 31.237 35.029C31.7922 34.7045 32.1984 35.0543 31.9927 35.4202C31.7138 36.6107 31.5493 37.8249 31.5014 39.0465" stroke="#2D2D2D" stroke-linecap="round" stroke-linejoin="bevel"/>
<path d="M26.1071 32.0284C26.4994 32.1815 26.8295 32.4605 27.0454 32.8214C27.2613 33.1824 27.3507 33.6048 27.2995 34.022C27.2914 36.7152 25.795 36.5403 25.795 36.5403C25.5154 37.3188 23.7618 37.6403 23.7618 37.6403C23.1397 38.3722 22.623 38.1235 22.623 38.1235C22.1534 38.3439 21.6458 38.4723 21.1277 38.5016C20.364 38.6791 19.6533 39.0345 19.0539 39.5389C18.9142 39.6925 18.7408 39.8119 18.5473 39.8876C16.4532 39.7329 16.0713 37.9496 16.0318 36.8921C16.0249 36.7046 16.0828 36.5205 16.1959 36.3707C16.309 36.2208 16.4703 36.1144 16.6528 36.0692C17.8327 35.636 18.8419 34.8361 19.532 33.7875C19.532 33.7875 21.6485 30.8739 26.1071 32.0284Z" fill="#0097FF" stroke="white" stroke-width="0.5" stroke-miterlimit="10" stroke-linecap="round"/>
<path d="M20.8887 35.0664C21.203 35.4081 21.5415 35.7267 21.9018 36.0198C22.2938 36.314 21.4601 36.9489 21.4398 37.1521C21.4195 37.3553 21.2625 37.7435 21.7093 38.0275C22.1561 38.3116 23.5055 38.1741 23.7831 37.608" fill="#0097FF"/>
<path d="M20.8887 35.0664C21.203 35.4081 21.5415 35.7267 21.9018 36.0198C22.2938 36.314 21.4601 36.9489 21.4398 37.1521C21.4195 37.3553 21.2625 37.7435 21.7093 38.0275C22.1561 38.3116 23.5055 38.1741 23.7831 37.608" stroke="white" stroke-width="0.5" stroke-miterlimit="10" stroke-linecap="round"/>
<path d="M23.2012 37.8882C23.7258 37.3825 24.1 36.7419 24.2822 36.0371C24.4213 35.6289 24.423 35.1865 24.2872 34.7772C24.1513 34.3679 23.8852 34.0141 23.5294 33.7695" fill="#0097FF"/>
<path d="M23.2012 37.8882C23.7258 37.3825 24.1 36.7419 24.2822 36.0371C24.4213 35.6289 24.423 35.1865 24.2872 34.7772C24.1513 34.3679 23.8852 34.0141 23.5294 33.7695" stroke="white" stroke-width="0.4" stroke-miterlimit="10" stroke-linecap="round"/>
<path d="M25.3086 37.0137C25.5156 36.6503 25.6405 36.246 25.6744 35.8293C25.7084 35.4127 25.6506 34.9936 25.5051 34.6016" stroke="white" stroke-width="0.4" stroke-linecap="round" stroke-linejoin="round"/>
<path d="M13.5605 36.7486C13.5605 36.7486 15.6718 36.1066 16.4347 35.9226C17.1976 35.7386 17.1864 35.859 17.1864 35.859C19.7111 36.9882 19.2045 40.5478 19.2045 40.5478C18.8162 40.8089 18.41 41.0423 17.9888 41.2464C17.1563 41.5682 16.3067 41.8442 15.4439 42.0733" fill="white"/>
<path d="M13.5605 36.7486C13.5605 36.7486 15.6718 36.1066 16.4347 35.9226C17.1976 35.7386 17.1864 35.859 17.1864 35.859C19.7111 36.9882 19.2045 40.5478 19.2045 40.5478C18.8162 40.8089 18.41 41.0423 17.9888 41.2464C17.1563 41.5682 16.3067 41.8442 15.4439 42.0733" stroke="#2D2D2D" stroke-linecap="round" stroke-linejoin="round"/>
<path d="M9.01243 10.1192C9.01243 10.1192 10.0063 7.36537 16.1103 7.51398C22.2142 7.66259 22.8748 9.78457 22.8748 9.78457C22.8748 9.78457 23.1463 11.2929 23.8726 10.1192C23.8726 10.1192 25.3487 8.37635 24.5666 6.87608C24.5666 6.87608 24.4846 4.41435 22.7511 3.69454C22.7511 3.69454 21.6793 1.06607 19.1526 1.32892C19.1526 1.32892 16.0242 -0.294727 13.7386 1.30967C13.7386 1.30967 10.3102 1.47348 9.64766 3.51461C9.11272 3.89249 8.69803 4.41595 8.45301 5.02254C8.20798 5.62914 8.14297 6.29325 8.26577 6.93568C8.06579 7.4812 8.02991 8.07313 8.16257 8.63872C8.29522 9.20431 8.59061 9.71889 9.01243 10.1192Z" fill="white" stroke="#2D2D2D" stroke-miterlimit="10" stroke-linecap="round"/>
<path d="M17.8942 3.88227H17.2863C17.2611 3.88254 17.236 3.87779 17.2125 3.86838C17.189 3.85898 17.1677 3.84506 17.1496 3.82741C17.1316 3.80976 17.1172 3.78873 17.1073 3.76552C17.0973 3.74232 17.0921 3.71738 17.0918 3.69216L17.0857 3.11189C17.0812 2.9523 17.0149 2.80067 16.9008 2.68878C16.7867 2.5769 16.6336 2.51345 16.4736 2.51175C16.3136 2.51005 16.1592 2.57022 16.0427 2.67965C15.9262 2.78909 15.8567 2.93929 15.8487 3.09875L15.8558 3.7053C15.855 3.75643 15.8341 3.80521 15.7975 3.84099C15.7609 3.87676 15.7116 3.89667 15.6603 3.8964L15.0119 3.90245C14.9307 3.90097 14.85 3.91551 14.7744 3.94521C14.6987 3.97491 14.6297 4.01918 14.5713 4.07553C14.5128 4.13187 14.4661 4.19915 14.4338 4.27354C14.4014 4.34792 14.3841 4.42799 14.3828 4.50906C14.3863 4.58958 14.4057 4.66864 14.4398 4.74169C14.474 4.81473 14.5222 4.88031 14.5817 4.93476C14.6413 4.98921 14.711 5.03141 14.7869 5.05897C14.8628 5.08653 14.9434 5.0989 15.0241 5.09537L15.6735 5.08427C15.7248 5.08207 15.7748 5.10016 15.8127 5.13462C15.8507 5.16908 15.8735 5.21713 15.8761 5.26827L15.8832 5.85261C15.8846 5.98913 15.9331 6.12101 16.0206 6.22598C16.108 6.33095 16.2291 6.40259 16.3634 6.42887C16.443 6.44659 16.5254 6.44845 16.6058 6.43436C16.6861 6.42026 16.7629 6.3905 16.8317 6.34674C16.9005 6.30297 16.96 6.24608 17.0067 6.17933C17.0534 6.11259 17.0865 6.03728 17.104 5.95775C17.1118 5.92183 17.1165 5.88527 17.1181 5.84854L17.1121 5.25309C17.1121 5.22778 17.1171 5.20272 17.1269 5.17935C17.1366 5.15598 17.1509 5.13476 17.1688 5.11691C17.1868 5.09906 17.2081 5.08498 17.2316 5.07538C17.2551 5.06579 17.2802 5.06087 17.3056 5.06101L17.9135 5.0499C18.0708 5.04991 18.2217 4.98808 18.3336 4.87774C18.4455 4.76741 18.5093 4.61746 18.5112 4.4605C18.5077 4.30301 18.4418 4.15336 18.3278 4.04437C18.2138 3.93537 18.0611 3.87593 17.9033 3.87918L17.8942 3.88227Z" fill="#0097FF"/>
<mask id="mask0_205_829" style="mask-type:luminance" maskUnits="userSpaceOnUse" x="6" y="11" width="20" height="14">
<path d="M13.1074 11.9747C12.0095 12.4854 10.8522 12.8586 9.6625 13.0864C9.6625 13.0864 7.44048 12.7835 7.01497 13.4912C6.58947 14.1989 7.93273 20.891 10.6499 22.3569C13.367 23.8227 12.8321 24.0473 16.3506 24.0806C19.8691 24.114 21.6876 21.9067 23.654 19.3792C25.6204 16.8518 25.051 13.0864 25.051 13.0864H22.3164C22.3164 13.0864 13.9544 11.4005 13.1074 11.9747Z" fill="white"/>
</mask>
<g mask="url(#mask0_205_829)">
<path d="M23.2778 13.1006C23.2879 14.6535 22.9667 20.4604 17.7614 22.1993C16.6243 22.5831 15.3908 22.5731 14.2601 22.171C12.083 21.3905 8.71236 19.126 8.99198 12.6578C8.99198 12.5941 8.9241 12.5658 8.99198 12.5709V12.6578C8.93757 12.8488 8.93757 13.0512 8.99198 13.2422C9.74876 14.2006 12.4923 12.8751 15.7413 12.8751C19.116 12.8751 22.3153 14.0883 23.2382 13.3857" fill="#0097FF"/>
<path d="M23.2778 13.1006C23.2879 14.6535 22.9667 20.4604 17.7614 22.1993C16.6243 22.5831 15.3908 22.5731 14.2601 22.171C12.083 21.3905 8.71236 19.126 8.99198 12.6578M8.99198 12.6578C8.99198 12.5941 8.9241 12.5658 8.99198 12.5709V12.6578ZM8.99198 12.6578C8.93757 12.8488 8.93757 13.0512 8.99198 13.2422C9.74876 14.2006 12.4923 12.8751 15.7413 12.8751C19.116 12.8751 22.3153 14.0883 23.2382 13.3857" stroke="white" stroke-miterlimit="10" stroke-linecap="round"/>
</g>
<path d="M27.4719 35.8239C27.6066 35.8239 31.9063 35.6894 32.1747 35.0869C32.6903 33.722 33.1058 32.3215 33.4178 30.8964C33.4156 29.8538 33.6446 28.8236 34.0885 27.8797C34.6963 26.8738 36.2322 23.8945 36.2322 23.8945C36.6258 23.2805 36.9496 22.6248 37.1977 21.9393C37.4349 21.2221 37.6251 20.4903 37.7671 19.7485C37.8472 18.908 37.8472 18.0617 37.7671 17.2211C37.6161 16.4043 37.5725 16.3446 36.989 16.3386C36.4054 16.3325 36.374 17.2211 36.374 17.2211C36.374 17.2211 36.2008 15.6885 35.3356 15.8705C34.4704 16.0525 34.6973 16.565 34.6973 17.302C34.6973 18.039 34.7642 20.4764 34.6973 20.6099C34.6305 20.7433 34.5586 21.5096 34.4248 21.7775C34.5099 20.9959 34.4609 20.2054 34.28 19.4402C33.9912 17.6336 33.7045 17.0139 33.1655 16.9128C32.6266 16.8117 32.277 17.0816 32.277 17.7519C32.277 18.4222 32.815 19.8971 32.815 20.3662C32.819 20.9735 32.7372 21.5783 32.5719 22.1627C32.5719 22.1627 32.1048 20.5108 31.9701 20.2419C31.8353 19.973 31.5973 18.5839 30.7989 18.957C30.0006 19.33 30.4626 19.8951 30.5963 20.4319C30.8192 21.2221 30.9764 22.0292 31.0664 22.8451C30.5496 24.0111 30.1445 25.2232 29.8567 26.4654C29.6081 28.3176 29.2491 30.1534 28.7818 31.963C28.1517 32.9422 27.6115 33.9762 27.168 35.0525C27.1899 35.3341 27.2957 35.6028 27.4719 35.8239Z" fill="#0097FF" stroke="white" stroke-width="0.4" stroke-miterlimit="10" stroke-linecap="round" stroke-linejoin="round"/>
<path d="M36.372 17.2188C36.4432 17.9709 36.4432 18.7281 36.372 19.4803C36.2464 20.5195 36.2981 20.3062 36.1562 21.0715" fill="#1778F2"/>
<path d="M36.372 17.2188C36.4432 17.9709 36.4432 18.7281 36.372 19.4803C36.2464 20.5195 36.2981 20.3062 36.1562 21.0715" stroke="white" stroke-width="0.4" stroke-miterlimit="10" stroke-linecap="round" stroke-linejoin="round"/>
</g>
<defs>
<linearGradient id="paint0_linear_205_829" x1="23.4478" y1="0.792969" x2="23.4478" y2="43.8076" gradientUnits="userSpaceOnUse">
<stop stop-color="white"/>
<stop offset="1" stop-color="#D9F88B"/>
</linearGradient>
<clipPath id="clip0_205_829">
<rect width="45" height="45" fill="white"/>
</clipPath>
</defs>
</svg>
